<mxfile host="app.diagrams.net" modified="2023-10-19T18:53:25.537Z" agent="Mozilla/5.0 (Windows NT 10.0; Win64; x64) AppleWebKit/537.36 (KHTML, like Gecko) Chrome/118.0.0.0 Safari/537.36" version="22.0.4" etag="t23c66CoUUMYwEJmt1x1" type="github">
  <diagram name="Page-1" id="HVa2IQAThoXC0-lEwRJ8">
    <mxGraphModel>
      <root>
        <mxCell id="0" />
        <mxCell id="1" parent="0" />
      </root>
    </mxGraphModel>
  </diagram>
</mxfile>
